<svg xmlns="http://www.w3.org/2000/svg" width="16" height="16" viewBox="0 0 16 16">
  <g fill="#263A32">
    <path d="M0.875,16 L13.125,16 L13.125,16 C13.60625,16 14,15.60625 14,15.125 L14,8.125 L12.25,8.125 L12.25,14.25 L1.75,14.25 L1.75,3.75 L7.875,3.75 L7.875,2 L0.875,2 L0.875,2 C0.39375,2 0,2.39375 0,2.875 L0,15.125 C7.77156117e-16,15.60625 0.39375,16 0.875,16 Z"/>
    <polygon points="7 7.721 8.276 9 14.177 3.107 14.177 5.094 16 5.094 16 0 10.896 0 10.896 1.827 12.878 1.827"/>
  </g>
</svg>
