<svg xmlns="http://www.w3.org/2000/svg" width="22" height="22" viewBox="0 0 22 22"><path fill="#FFF" d="M18.746 17.904V.841A.838.838 0 0 0 17.904 0H.841A.838.838 0 0 0 0 .841v17.086c0 .468.374.842.841.842h17.086a.87.87 0 0 0 .819-.865zM.84.841h17.086v17.086H.841V.841zm20.195 2.291v17.086a.838.838 0 0 1-.841.842H3.132a.838.838 0 0 1-.841-.842v-.42c0-.234.187-.421.42-.421.234 0 .421.187.421.42v.421h17.086V3.132h-.42a.419.419 0 0 1-.421-.42c0-.234.187-.421.42-.421h.421c.444 0 .818.374.818.841zM15.613 2.08H2.922a.838.838 0 0 0-.842.842v11.032c0 .467.374.841.842.841h12.715a.838.838 0 0 0 .841-.841V2.922a.874.874 0 0 0-.865-.842zm0 .842v7.129l-1.075-1.076c-.327-.327-.865-.327-1.168 0l-2.127 2.127-4.395-4.44a.811.811 0 0 0-.584-.234c-.21 0-.42.093-.584.233L2.922 9.42V2.922h12.691zM2.922 13.954v-3.366L6.24 7.246l4.464 4.464c.14.14.35.234.538.234a.71.71 0 0 0 .537-.234l2.174-2.174 1.66 1.66v2.735H2.921v.023zm9.045-6.358c.795 0 1.45-.654 1.45-1.449 0-.794-.632-1.472-1.45-1.472-.794 0-1.449.654-1.449 1.449s.655 1.472 1.45 1.472zm0-2.08c.35 0 .631.28.631.631 0 .35-.28.631-.63.631a.628.628 0 0 1-.632-.63c0-.351.304-.632.631-.632z"/></svg>