<svg xmlns="http://www.w3.org/2000/svg" width="13" height="18" viewBox="0 0 13 18">
  <path fill="#C2A572" d="M6.50029992,1.4017191e-06 C4.27475791,-0.00145948599 2.20338079,1.13908016 1.0110115,3.02250803 C-0.181357777,4.9059359 -0.32872711,7.27005623 0.62047288,9.2875856 C0.749283176,9.55328185 0.897054556,9.80931596 1.06263587,10.0536934 L6.27921843,17.8821369 C6.32820514,17.9552491 6.41008113,17.9993681 6.49794799,17.9999996 L6.49794799,17.9999996 C6.58664841,18.0001503 6.6695771,17.9559395 6.71902949,17.8821369 L11.8932773,10.1031958 C12.0851936,9.82748792 12.2558131,9.53748743 12.4036463,9.235726 C13.3308303,7.21924141 13.168803,4.86820574 11.9738024,2.99863955 C10.7788018,1.12907335 8.71559489,-0.00124691789 6.50029992,1.4017191e-06 Z M6.50029992,8.85385071 C5.2013644,8.85385071 4.14836911,7.79847175 4.14836911,6.49659583 C4.14836911,5.19471992 5.2013644,4.13934096 6.50029992,4.13934096 C7.79923545,4.13934096 8.85223074,5.19471992 8.85223074,6.49659583 C8.85223074,7.79847175 7.79923545,8.85385071 6.50029992,8.85385071 L6.50029992,8.85385071 Z"/>
</svg>
