<svg xmlns="http://www.w3.org/2000/svg" xmlns:xlink="http://www.w3.org/1999/xlink" width="29" height="29" viewBox="0 0 29 29"><defs><circle id="a" cx="12.5" cy="12.5" r="12.5"/></defs><g fill="none" fill-rule="evenodd" transform="translate(2 2)"><use fill="#263A32" xlink:href="#a"/><circle cx="12.5" cy="12.5" r="13.5" stroke="#FFF" stroke-width="2"/><path fill="#FFF" fill-rule="nonzero" d="M11.289 7.449S12.773 6.614 13.79 6v3.007h.299c.2 0 .231.185.07.398-.263.344-.133.728.238.987.372.26 1.959.736 3.328 1.273 1.179.45 1.945 1.556 1.921 2.778h.389c.096 0 .2.168 0 .254-.201.087-.3.255-.251.405.094.225.16.46.195.701 0 .361-.1.878-.1 1.02H5.278c.022-.17-.213-.865-.104-1.211.063-.21.192-.41.202-.51.028-.2-.076-.312-.264-.445-.188-.132-.105-.232 0-.232l.362.018c-.03-1.228.735-2.344 1.918-2.8 1.37-.54 2.992-1.044 3.368-1.305.374-.259.529-.61.264-.951-.161-.21-.22-.39-.02-.39h.285V7.449zm7.631 6.049c.028.107.145.106.145-.025 0-.42.158-1.28-1.832-2.055-1.357-.526-3.31-.985-3.72-1.206-.402-.193-.627-.576-.568-.964h-.37c0 .406.04.871.676 1.169.426.195 2.548.684 3.866 1.253 1.623.696 1.642 1.207 1.763 1.69l.041.138h-.001zm-6.065-6.415c-.133.104-.28.23-.28.23v1.933h.28V7.083zM9.848 11.48c-1.223.287-3.181.745-3.746 1.842-.062.12.014.253.385.253l1.708-.072c.394 0 .372 0 .334-.124-.116-.39.378-1.008 1.751-1.804.199-.114.252-.25-.442-.092l.01-.003zm8.138 2.427c0-.06-.354-.135-.803-.165a79.81 79.81 0 0 0-10.299 0c-.446.03-.801.106-.801.165 0 .058.367.081.801.054a79.62 79.62 0 0 1 10.27 0c.444.03.802 0 .802-.051l.03-.003zm1.313.833c-.026-.06-.083-.092-.14-.081-.086 0-.072.098 0 .205.174.314-.059.758-.086.815-.026.055.045.08.071.042.21-.282.268-.649.155-.98z"/></g></svg>