<svg xmlns="http://www.w3.org/2000/svg" width="23" height="23" viewBox="0 0 23 23"><path d="M19.313.082C21.326.082 23 1.647 23 3.726c0 .508-.114 1.167-.288 1.63-.986 2.1-1.983 4.204-2.975 6.305a.472.472 0 0 1-.417.263h-6.21c-1.155 0-2.07.906-2.07 2.05 0 1.143.915 2.05 2.07 2.05h2.76c1.903 0 3.45 1.53 3.45 3.415 0 1.884-1.547 3.416-3.45 3.416H4.14a.472.472 0 0 1-.417-.264c-1.12-2.365-2.29-4.713-3.4-7.08A5.473 5.473 0 0 1 0 13.746c0-2.313 1.875-4.1 4.147-4.1 2.272 0 4.133 1.788 4.133 4.1 0 .562-.136 1.268-.323 1.765-1.025 2.143-2.06 4.289-3.091 6.433H15.87c1.41 0 2.53-1.11 2.53-2.505 0-1.396-1.12-2.505-2.53-2.505h-2.76c-1.649 0-2.99-1.328-2.99-2.96 0-1.633 1.341-2.96 2.99-2.96h5.484c-.886-1.888-1.795-3.768-2.667-5.658a5.189 5.189 0 0 1-.287-1.63c0-2.077 1.66-3.644 3.673-3.644zm0 .911c-1.544 0-2.753 1.125-2.753 2.733 0 .337.125 1.024.23 1.31.838 1.784 1.686 3.568 2.53 5.35.824-1.791 1.677-3.524 2.53-5.35.105-.285.23-.972.23-1.31 0-1.607-1.223-2.733-2.767-2.733zm.007 1.139c.884 0 1.61.719 1.61 1.594a1.61 1.61 0 0 1-1.61 1.594 1.61 1.61 0 0 1-1.61-1.594 1.61 1.61 0 0 1 1.61-1.594zm0 .91a.68.68 0 0 0-.69.684.68.68 0 0 0 .69.683c.386 0 .69-.3.69-.683a.68.68 0 0 0-.69-.683zM4.147 10.559c-1.793 0-3.227 1.354-3.227 3.188 0 .389.137 1.095.266 1.437.98 2.05 1.968 4.1 2.954 6.149.965-2.058 1.997-4.133 2.954-6.149.128-.342.266-1.049.266-1.437 0-1.835-1.42-3.188-3.213-3.188zm-.007 1.138c1.138 0 2.07.923 2.07 2.05 0 1.126-.932 2.05-2.07 2.05s-2.07-.924-2.07-2.05c0-1.127.932-2.05 2.07-2.05zm0 .911a1.137 1.137 0 1 0 0 2.277 1.138 1.138 0 1 0 0-2.277z"/></svg>