<!DOCTYPE svg PUBLIC "-//W3C//DTD SVG 20010904//EN" "http://www.w3.org/TR/2001/REC-SVG-20010904/DTD/svg10.dtd">
<svg xmlns="http://www.w3.org/2000/svg" version="1.0" width="196" height="196" viewBox="0 0 196 196">
  <g fill="none" fill-rule="evenodd">
    <rect width="196" height="196" fill="#C3A572"/>
    <g transform="translate(27 27)">
      <path fill="#C3A572" d="M142.984044,70.7622094 C142.984044,109.836959 110.974623,141.511459 71.4915705,141.511459 C32.0055074,141.511459 0.000602105263,109.836959 0.000602105263,70.7622094 C0.000602105263,31.6904385 32.0055074,0.0159385417 71.4915705,0.0159385417 C110.974623,0.0159385417 142.984044,31.6904385 142.984044,70.7622094" transform="translate(0 1.473)"/>
      <path fill="#FFF" d="M81.8665968 107.367975L81.8665968 103.079465C81.8665968 102.333183 81.9253021 101.564558 81.9253021 100.784017 81.9253021 100.708048 81.8936916 100.633569 81.8289653 100.59335 81.7732705 100.545683 81.6904811 100.524829 81.6197337 100.545683L80.2845653 100.882329C80.2093021 100.901694 80.1460811 100.95085 80.1159758 101.02086 80.0858705 101.089381 80.0903863 101.171308 80.1280179 101.241319 80.31166 101.569027 80.3221968 102.011433 80.3191863 102.480652L80.3191863 107.367975C80.3282179 107.88784 80.3011232 108.444944 80.0994179 108.724985 80.0482389 108.803933 80.0437232 108.900756 80.0858705 108.981194 80.1310284 109.057162 80.2153232 109.107808 80.3086495 109.107808L81.8786389 109.107808C81.9719653 109.107808 82.0532495 109.057162 82.0999126 108.981194 82.1405547 108.899267 82.1390495 108.803933 82.08486 108.724985 81.8816495 108.444944 81.8605758 107.88784 81.8665968 107.367975M89.5046032 108.370316C88.6556347 108.365847 88.2371716 107.774482 88.2191084 106.96117 88.2206137 106.13892 88.6466032 105.578836 89.3405295 105.094722 90.1669189 105.596711 90.7916032 106.074868 90.7916032 106.985003 90.7599926 107.92642 90.4363611 108.340524 89.5046032 108.370316M89.6912558 101.400555C90.1608979 101.400555 90.4077611 101.832534 90.4182979 102.391128 90.4182979 102.882691 90.2226137 103.351909 89.8282347 103.760055 89.2742979 103.438305 88.8934663 102.916951 88.8934663 102.270472 88.8979821 101.783378 89.2231189 101.400555 89.6912558 101.400555M91.3786558 104.798295C91.1272768 104.582305 90.8758979 104.425899 90.7012874 104.306732 90.6787084 104.293326 90.6636558 104.27992 90.6425821 104.275451 91.0324453 104.011795 91.9732347 103.356378 91.9642032 102.172159 91.9491505 100.995389 90.7780558 100.541066 89.7921084 100.541066 88.3771611 100.541066 87.2768137 101.345441 87.2768137 102.616055 87.2692874 102.623503 87.2768137 102.629461 87.2722979 102.630951 87.2768137 103.31467 87.65614 103.81517 88.0083716 104.153305 88.1859926 104.317159 88.3590979 104.451222 88.4810242 104.552514 88.4870453 104.554003 88.4945716 104.559961 88.5005926 104.570389 88.0460032 104.860857 86.6009505 105.659274 86.5964347 107.171201 86.6175084 108.644399 88.1453505 109.305774 89.3811716 109.311732 90.8202032 109.305774 92.4097611 108.689086 92.4097611 106.871795 92.4097611 105.902076 91.8784032 105.228784 91.3786558 104.798295M99.2036158 100.541215C97.6486789 100.545683 96.3661947 101.45135 96.3586684 103.02286 96.3631842 104.20559 97.1007632 105.303412 98.5081842 105.303412 98.9657842 105.309371 99.3225316 105.187225 99.6160579 104.960808 99.7018579 104.899735 99.7364789 104.786527 99.7048684 104.683746 99.6687421 104.586923 99.5739105 104.522871 99.4670368 104.522871L99.3932789 104.522871C98.4193737 104.504996 98.0039211 103.861496 97.9798368 102.884329 98.0069316 101.942912 98.3109947 101.48859 99.0049211 101.476673 99.8719526 101.478162 100.055595 102.181246 100.079679 103.048183 100.084195 105.358527 98.5729105 108.032329 96.1313737 108.689235 96.0229947 108.719027 95.9477316 108.812871 95.9477316 108.92459L95.9477316 109.012475C95.9477316 109.118235 96.0214895 109.218037 96.1283632 109.249319 96.2231947 109.273152 96.3496368 109.311881 96.5091947 109.311881 99.7394895 109.27911 101.693321 105.794975 101.700847 103.05861 101.700847 102.336162 101.493121 101.70011 101.059605 101.245787 100.632111 100.788485 99.9893632 100.541215 99.2036158 100.541215M107.723556 108.370316C106.873082 108.365847 106.454619 107.774482 106.435051 106.96117 106.438061 106.13892 106.867061 105.574368 107.557977 105.094722 108.381356 105.596711 109.010556 106.074868 109.009051 106.985003 108.975935 107.923441 108.656819 108.340524 107.723556 108.370316M107.913219 101.400555C108.37684 101.400555 108.623703 101.832534 108.635745 102.391128 108.632735 102.882691 108.438556 103.356378 108.042672 103.760055 107.491745 103.438305 107.110914 102.916951 107.110914 102.266003 107.115429 101.787847 107.437556 101.400555 107.913219 101.400555M109.596103 104.804253C109.343219 104.582305 109.094851 104.425899 108.917229 104.306732 108.896156 104.293326 108.879598 104.27992 108.861535 104.275451 109.249893 104.011795 110.189177 103.356378 110.181651 102.172159 110.163587 100.995389 108.993998 100.541066 108.009556 100.541066 106.596114 100.541066 105.492756 101.345441 105.48824 102.616055 105.48824 102.629461 105.492756 102.629461 105.48824 102.629461 105.492756 103.31467 105.876598 103.81517 106.225819 104.153305 106.404945 104.317159 106.578051 104.451222 106.696966 104.549534 106.704493 104.554003 106.712019 104.559961 106.719545 104.567409 106.264956 104.860857 104.815387 105.665232 104.815387 107.171201 104.839472 108.644399 106.362798 109.305774 107.597114 109.305774 109.037651 109.305774 110.627208 108.689086 110.630219 106.871795 110.630219 105.902076 110.095851 105.228784 109.596103 104.804253M35.8017811 104.442731L36.7320337 102.186012 37.4756337 104.442731 35.8017811 104.442731zM40.9558021 108.519721L40.7074337 108.068377C39.4776337 105.814637 38.6768337 103.146794 37.8790442 100.678554 37.8474337 100.578752 37.7510968 100.511721 37.6442232 100.511721L36.1720758 100.511721C36.0381074 100.511721 35.9267179 100.618971 35.9206968 100.753033L35.91016 101.083721C35.9523074 101.916398 33.3406758 107.353377 32.67836 108.139877L32.4059074 108.48695C32.3487074 108.55696 32.3366653 108.661231 32.3803179 108.750606 32.4194547 108.831044 32.5082653 108.883179 32.5985811 108.883179L34.1595389 108.883179C34.2348021 108.883179 34.3055495 108.854877 34.3492021 108.801252 34.3958653 108.746137 34.4169389 108.676127 34.4048968 108.600158 34.3823179 108.4512 34.3732863 108.321606 34.3732863 108.169669 34.3627495 107.599158 34.8624968 106.455158 35.3742863 105.427346L37.8594758 105.427346 39.1600232 108.728262C39.1961495 108.825085 39.2879705 108.883179 39.3918337 108.883179L40.7390442 108.883179C40.8248442 108.883179 40.9076337 108.837002 40.9512863 108.765502 40.9964442 108.689533 40.9964442 108.600158 40.9558021 108.519721L40.9558021 108.519721zM50.4222516 100.516487L49.1201989 100.516487C49.0328937 100.516487 48.9531147 100.558196 48.9094621 100.634165 48.8643042 100.710133 48.8627989 100.798019 48.9049463 100.872498 49.0569779 101.155519 49.1743884 101.520467 49.1743884 102.338248L49.1743884 106.349696 46.7915568 103.029415C46.4152411 102.496144 45.6189568 101.183821 45.3389779 100.809935 45.1598516 100.54181 44.8497674 100.497123 44.6435463 100.516487L43.3806305 100.516487C43.2797779 100.516487 43.1894621 100.573092 43.1503253 100.666935 43.1126937 100.753331 43.1337674 100.862071 43.20602 100.93506 43.4814832 101.189779 43.5416937 101.800508 43.5296516 102.4023L43.5296516 105.029925C43.5341674 106.117321 43.5221253 107.609883 43.1141989 108.545342 43.0810832 108.616842 43.0886095 108.704727 43.1367779 108.776227 43.1804305 108.844748 43.2602095 108.884967 43.3429989 108.884967L44.77902 108.884967C44.8633147 108.884967 44.9370726 108.844748 44.9867463 108.776227 45.0303989 108.704727 45.03642 108.616842 45.0048095 108.545342 44.6766621 107.785654 44.6465568 106.731029 44.6525779 105.814935L44.6525779 105.47829 44.6525779 102.728519 48.9817147 108.831342C49.0268726 108.892415 49.1021358 108.937102 49.18342 108.937102L50.07002 108.937102C50.1392621 108.937102 50.2024832 108.905821 50.2476411 108.862623 50.2943042 108.811977 50.3213989 108.749415 50.3183884 108.680894 50.3048411 108.309987 50.2927989 107.94504 50.2927989 107.541362L50.2927989 102.597435C50.2927989 101.986706 50.3650516 101.389383 50.6390095 100.872498 50.6811568 100.79504 50.6796516 100.707154 50.6344937 100.634165 50.5878305 100.558196 50.5065463 100.516487 50.4222516 100.516487M60.4504653 100.513657L59.1529284 100.513657C59.0686337 100.513657 58.9828337 100.555366 58.9406863 100.634314 58.8970337 100.710282 58.8955284 100.799657 58.9376758 100.872647 59.0882021 101.155668 59.2026021 101.520616 59.2071179 102.338397L59.2071179 106.354314 56.8227811 103.028074C56.4464653 102.496293 55.6516863 101.18397 55.3717074 100.808595 55.1955916 100.541959 54.8840021 100.497272 54.6702547 100.513657L53.4118547 100.513657C53.3125074 100.513657 53.2191811 100.573241 53.1815495 100.667084 53.1439179 100.75348 53.1649916 100.86222 53.2387495 100.935209 53.5157179 101.189928 53.5699074 101.803636 53.5638863 102.402449L53.5638863 105.030074C53.5668968 106.11747 53.55636 107.607053 53.1469284 108.545491 53.1153179 108.616991 53.1228442 108.704876 53.1695074 108.776376 53.2101495 108.844897 53.2929389 108.885116 53.3757284 108.885116L54.8102442 108.885116C54.8960442 108.885116 54.9698021 108.844897 55.0194758 108.776376 55.0646337 108.704876 55.0706547 108.616991 55.0360337 108.545491 54.7108968 107.785803 54.6822968 106.731178 54.6822968 105.815084 54.6822968 105.700386 54.6838021 105.590157 54.6838021 105.475459L54.6838021 102.736116 59.0144442 108.831491C59.0580968 108.894053 59.1348653 108.937251 59.2161495 108.937251L60.10576 108.937251C60.1704863 108.937251 60.2337074 108.907459 60.2818758 108.859793 60.3285389 108.812126 60.3541284 108.749564 60.3541284 108.681043 60.3375705 108.310136 60.3285389 107.942209 60.3285389 107.541511L60.3285389 102.597584C60.3285389 101.985366 60.4007916 101.389532 60.6717389 100.872647 60.7123811 100.795189 60.7093705 100.707303 60.6672232 100.634314 60.62056 100.555366 60.5392758 100.513657 60.4504653 100.513657M67.1667989 108.051694C66.2561147 108.039777 65.7202411 107.589923 65.3484411 106.903225 64.9826621 106.215037 64.8426726 105.303412 64.8426726 104.518402 64.8607358 102.778569 65.5621884 101.351548 67.1667989 101.351548 68.0759779 101.356017 68.6133568 101.814808 68.9881674 102.498527 69.3524411 103.183735 69.4909253 104.101319 69.4909253 104.88484 69.4728621 106.618715 68.7683989 108.047225 67.1667989 108.051694M70.3248411 101.564558C69.66102 100.785506 68.6329253 100.314798 67.2646411 100.319267 64.5220516 100.323735 63.05442 102.431496 63.0514095 104.861006 63.0514095 106.000537 63.3464411 107.052183 64.0072516 107.829746 64.6695674 108.607308 65.6931463 109.080996 67.0523989 109.080996L67.0689568 109.080996C69.8115463 109.075037 71.2761674 106.973235 71.2836937 104.543725 71.2836937 103.395256 70.9886621 102.342121 70.3248411 101.564558M19.0557284 87.0186281C19.0557284 87.5906281 19.6277284 87.9674927 19.6277284 87.9674927L14.1922232 87.9674927C14.1922232 87.9674927 14.7657284 87.6397844 14.7657284 87.0186281L14.7657284 74.9813052C14.7657284 74.3720656 14.1922232 74.0294615 14.1922232 74.0294615L19.6277284 74.0294615C19.6277284 74.0294615 19.0557284 74.3273781 19.0557284 74.9813052L19.0557284 78.9733885 26.1304653 78.9733885 26.1304653 74.9813052C26.1304653 74.7474406 25.5599705 74.0294615 25.5599705 74.0294615L30.9924653 74.0294615C30.9924653 74.0294615 30.41896 74.7474406 30.41896 74.9813052L30.41896 87.0186281C30.41896 87.5906281 30.9924653 87.9674927 30.9924653 87.9674927L25.5599705 87.9674927C25.5599705 87.9674927 26.1304653 87.6114823 26.1304653 87.0186281L26.1304653 82.199826 19.0557284 82.199826 19.0557284 87.0186281zM42.7445063 77.3224833L40.1208326 82.8667125 45.4344116 82.8667125 42.7445063 77.3224833zM47.4514642 87.3012021C47.3295379 86.9854104 46.5874432 85.2977125 46.5227168 85.1487542L39.0942432 85.1487542C39.0490853 85.2977125 38.2783905 87.0181812 38.1654958 87.3012021 38.0556116 87.5886917 38.2603274 87.9670458 38.2603274 87.9670458L33.7806642 87.9670458C33.7806642 87.9670458 34.1268747 87.8434104 34.4219063 87.2699208 34.7169379 86.6964312 35.7119168 84.3294833 36.3757379 82.8816083 37.0335379 81.4367125 37.6296221 80.1258792 38.1504432 78.9550667 38.67578 77.7842542 39.10478 76.8100667 39.4494853 76.0414417 39.7881695 75.2683479 39.8513905 75.1015146 39.9582642 74.7216708 40.0711589 74.3462958 39.8664432 74.0290146 39.8664432 74.0290146L45.91158 74.0290146C45.91158 74.0290146 45.7354642 74.3909833 45.8167484 74.7216708 45.9010432 75.0538479 45.9326537 75.0702333 46.1554326 75.5662646 46.3782116 76.0593167 46.6717379 76.6819625 47.0360116 77.4312229 47.3972747 78.1834625 47.7976747 79.0101812 48.2372116 79.9173375 48.6737379 80.8289625 49.1117695 81.7376083 49.5498011 82.6492333 49.9863274 83.5534104 50.3987695 84.4114104 50.7811063 85.2277021 51.1679589 86.0380354 51.4825589 86.718775 51.7098537 87.2699208 51.8859695 87.6914729 52.3495905 87.9670458 52.3495905 87.9670458L47.3566326 87.9670458C47.3566326 87.9670458 47.5733905 87.6214625 47.4514642 87.3012021L47.4514642 87.3012021zM62.9082589 77.3224833L60.2845853 82.8667125 65.5981642 82.8667125 62.9082589 77.3224833zM67.6152168 87.3012021C67.6152168 87.2177854 67.5790905 87.0881917 67.5008168 86.9049729 67.4300695 86.7292021 67.3457747 86.5325771 67.2464274 86.3195667 67.1515958 86.1095354 67.0492379 85.8995042 66.9438695 85.6879833 66.8369958 85.4779521 66.7496905 85.2977125 66.6864695 85.1487542L59.2595011 85.1487542C59.2173537 85.2977125 59.1466063 85.4779521 59.0517747 85.6879833 58.9569432 85.8995042 58.8560905 86.1095354 58.7477116 86.3195667 58.6408379 86.5325771 58.5445011 86.7292021 58.4571958 86.9049729 58.3744063 87.0881917 58.3292484 87.2177854 58.3292484 87.3012021 58.3292484 87.4486708 58.7477116 87.9670458 58.7477116 87.9670458L53.9444168 87.9670458C53.9444168 87.9670458 54.5420063 87.3771708 54.5856589 87.2699208 55.2253958 85.7922542 55.8771747 84.3294833 56.5409958 82.8816083 57.2003011 81.4367125 57.7933747 80.1258792 58.3157011 78.9550667 58.8395326 77.7842542 59.2715432 76.8100667 59.6102274 76.0414417 59.9549326 75.2683479 60.1250274 74.8304104 60.1250274 74.7216708 60.1250274 74.5310042 59.7095747 74.0290146 59.7095747 74.0290146L66.3989642 74.0290146C66.3989642 74.0290146 65.9835116 74.5310042 65.9835116 74.7216708 65.9835116 74.7842333 66.0949011 75.0702333 66.3191853 75.5662646 66.5419642 76.0593167 66.8369958 76.6819625 67.1982589 77.4312229 67.5640379 78.1834625 67.9629326 79.0101812 68.4009642 79.9173375 68.8359853 80.8289625 69.2740168 81.7376083 69.7105432 82.6492333 70.15008 83.5534104 70.5625221 84.4114104 70.9463642 85.2277021 71.3287011 86.0380354 71.6387853 86.7232437 71.8736063 87.2699208 71.9142484 87.3771708 72.5163537 87.9670458 72.5163537 87.9670458L67.1982589 87.9670458C67.1982589 87.9670458 67.6152168 87.4486708 67.6152168 87.3012021L67.6152168 87.3012021zM87.7068674 79.1160906C87.7068674 79.1160906 87.1137937 78.3444865 86.8443516 78.1791427 86.5794253 78.0078406 86.2377305 77.8559031 85.8177621 77.7158823 85.4083305 77.5803302 84.9371832 77.459674 84.4133516 77.3554031 83.88952 77.2466635 83.3596674 77.1945281 82.83132 77.1945281 82.23072 77.1945281 81.6225937 77.2704969 81.0039305 77.4194552 80.3852674 77.5654344 79.8313305 77.799299 79.3391095 78.1016844 78.8468884 78.4085385 78.4464884 78.7988094 78.1243621 79.2799448 77.8007305 79.7536323 77.6441832 80.3345698 77.6441832 81.0138198 77.6441832 81.6722156 77.8007305 82.2442156 78.1243621 82.732799 78.4464884 83.2169135 78.8468884 83.6176115 79.3391095 83.9244656 79.8313305 84.2328094 80.3852674 84.459226 81.0039305 84.609674 81.6225937 84.752674 82.23072 84.8316219 82.83132 84.8316219 83.4695516 84.8316219 84.0731621 84.752674 84.6361305 84.5903094 85.2006042 84.4353927 85.7033621 84.2462156 86.1413937 84.0212885 86.5794253 83.8008302 86.9196147 83.5803719 87.1679832 83.358424 87.4118358 83.1379656 87.9988884 82.2635802 87.9988884 82.2635802L90.7700779 86.246726C90.7700779 86.246726 89.6847832 86.3688719 89.3129832 86.5595385 88.9351621 86.7427573 88.4429411 86.961726 87.8212674 87.2030385 87.2010989 87.4413719 86.4740568 87.6439552 85.6280989 87.8107885 84.7881621 87.980601 83.8533937 88.0610385 82.83132 88.0610385 81.6542042 88.0610385 80.5086989 87.9433615 79.3887832 87.7154552 78.2673621 87.4830802 77.2678674 87.0883406 76.3933095 86.5237885 75.5172463 85.9637052 74.8142884 85.2308302 74.27992 84.323674 73.7485621 83.4135385 73.47912 82.3082677 73.47912 80.9974344 73.47912 79.7074552 73.7485621 78.6111219 74.27992 77.7039656 74.8142884 76.7938302 75.5172463 76.0535073 76.3933095 75.4829969 77.2678674 74.9169552 78.2673621 74.4968927 79.3887832 74.234726 80.5086989 73.9680906 81.6542042 73.8399865 82.83132 73.8399865 83.5327726 73.8399865 84.2191726 73.895101 84.8769726 74.0127781 85.5422989 74.127476 86.1474147 74.2466427 86.6998463 74.3762365 87.2567937 74.502851 87.7384779 74.6220177 88.1448989 74.7411844 88.5483095 74.8543927 89.7449937 75.0167573 89.7449937 75.0167573L87.7068674 79.1160906zM98.4083853 87.0186281C98.4083853 87.2495135 98.9773747 87.9674927 98.9773747 87.9674927L93.5433747 87.9674927C93.5433747 87.9674927 94.1153747 87.2495135 94.1153747 87.0186281L94.1153747 74.9813052C94.1153747 74.7474406 93.5433747 74.0294615 93.5433747 74.0294615L98.9773747 74.0294615C98.9773747 74.0294615 98.4083853 74.7474406 98.4083853 74.9813052L98.4083853 78.9733885 105.483122 78.9733885 105.483122 74.9813052C105.483122 74.7474406 104.909617 74.0294615 104.909617 74.0294615L110.346627 74.0294615C110.346627 74.0294615 109.773122 74.7474406 109.773122 74.9813052L109.773122 87.0186281C109.773122 87.2495135 110.346627 87.9674927 110.346627 87.9674927L104.909617 87.9674927C104.909617 87.9674927 105.483122 87.2495135 105.483122 87.0186281L105.483122 82.199826 98.4083853 82.199826 98.4083853 87.0186281zM128.791369 74.0044365L128.791369 77.6360406C128.791369 77.6360406 127.961969 77.2561969 127.831012 77.2561969L123.255012 77.2561969 123.255012 87.0159469C123.255012 87.2483219 123.667454 87.9692802 123.667454 87.9692802L118.549559 87.9692802C118.549559 87.9692802 118.965012 87.2483219 118.965012 87.0159469L118.965012 77.2561969 114.387506 77.2561969C114.259559 77.2561969 113.427148 77.6360406 113.427148 77.6360406L113.427148 74.0044365C113.427148 74.0044365 114.259559 74.0297594 114.387506 74.0297594L127.831012 74.0297594C127.961969 74.0297594 128.791369 74.0044365 128.791369 74.0044365M97.6542484 53.7343354C97.5970484 53.6017625 97.4299642 53.4245021 97.1003116 53.4602521 96.7706589 53.4989812 96.8218379 53.7954083 97.0581642 54.1692937 97.7475747 55.2611583 96.8263537 56.8028771 96.7315221 57.0009917 96.6291642 57.2005958 96.9016168 57.2795437 97.0099958 57.1410125 97.1213853 57.0039708 98.4249432 55.5218354 97.6542484 53.7343354L97.6542484 53.7343354zM91.2358063 51.3629187C91.2523642 51.1230958 89.8660168 50.8147521 88.1319537 50.6955854 74.7998379 49.8018354 61.4255747 49.8018354 48.0964695 50.6955854 46.3654168 50.8147521 44.9730484 51.1230958 44.9956274 51.3629187 45.01068 51.6057208 46.4286379 51.6936062 48.15668 51.5759292 61.4421326 50.6821792 74.7787642 50.6821792 88.0732484 51.57295 89.7967747 51.6936062 91.2117221 51.6057208 91.2358063 51.3629187L91.2358063 51.3629187zM62.1661642 38.9859708C57.1461116 40.2997833 49.0673642 42.4075437 46.7733432 47.443825 46.5234695 47.9890125 46.8350589 48.6071896 48.3598905 48.6071896L55.3954905 48.2750125C57.0196695 48.2750125 56.9203221 48.2854396 56.7682905 47.7059917 56.2941326 45.9110437 58.3277432 43.0689187 63.9800063 39.4105021 64.7958589 38.8846792 64.9659537 38.2575646 62.1661642 38.9859708L62.1661642 38.9859708zM74.6884484 21.5816792C74.1676274 21.9808875 73.5881011 22.4679812 73.5881011 22.4679812L73.5881011 29.8771687 74.6884484 29.8771687 74.6884484 21.5816792 74.6884484 21.5816792zM96.8293642 50.3217C96.9332274 50.7819812 97.3652379 50.7745333 97.3652379 50.2189187 97.3652379 48.4254604 97.9462695 44.7581062 90.6427326 41.4646375 85.6663326 39.221325 78.50128 37.2714604 76.9960168 36.3598354 75.0421853 35.1756167 74.8374695 33.4506792 74.95488 32.2217729 74.9398274 32.2485854 73.5926168 32.19645 73.5926168 32.2217729 73.5655221 33.9556479 73.7386274 35.9457312 76.0763011 37.2103875 77.6342484 38.0475333 85.3803326 40.1299708 90.2498589 42.5520333 96.2016695 45.5118354 96.2799432 47.7059917 96.71948 49.696075L96.8293642 50.3217zM66.5148695 23.6209187C66.5148695 23.6209187 72.3477642 20.2455229 76.3547747 17.7743042L76.3698274 29.9114292C76.3698274 29.9114292 76.7973221 29.9039812 77.4852274 29.9039812 78.2800063 29.9039812 78.4004274 30.6592 77.7697221 31.5037937 76.72808 32.8861271 77.2368589 34.4457208 78.7029853 35.4943875 80.1721221 36.5445437 86.3978905 38.4646167 91.7837221 40.6453667 99.1730589 43.6468771 99.32208 50.5868458 99.32208 51.8604396 99.32208 51.8604396 100.470596 51.8842729 100.849922 51.8842729 101.227743 51.8842729 101.635669 52.5575646 100.806269 52.9433667 99.97988 53.3276792 99.6336695 54.0024604 99.8233326 54.57595 99.9407432 54.9289812 100.591017 56.5645437 100.591017 57.4031792 100.591017 58.8629708 100.193627 60.9513667 100.193627 61.5457104L42.8114905 61.5099604C42.8957853 60.8351792 41.9730589 58.0302937 42.3975432 56.6271062 42.6489221 55.7825125 43.1531853 54.9766479 43.1938274 54.6087208 43.2976905 53.7954083 42.8957853 53.3410854 42.1386379 52.8093042 41.3920274 52.2894396 41.7277011 51.876825 42.1070274 51.876825 42.4848484 51.876825 43.6348695 51.8559708 43.6348695 51.8559708 43.6348695 50.5838667 43.7823853 43.6036792 51.1747326 40.5977 56.5530379 38.4243979 62.9368589 36.3821792 64.4044905 35.3320229 65.8691116 34.2893146 66.4847642 32.8682521 65.4431221 31.4829396 64.8124168 30.6398354 64.5851221 29.9129187 65.3753853 29.9129187 66.0647958 29.9129187 66.5043326 29.9039812 66.5043326 29.9039812L66.5148695 23.6209187z"/>
    </g>
  </g>
</svg>
