<svg xmlns="http://www.w3.org/2000/svg" width="30" height="30" viewBox="0 0 30 30"><g fill="none" fill-rule="evenodd"><circle cx="15" cy="15" r="15" fill="#C2A572"/><path fill="#FFF" fill-rule="nonzero" d="M20.214 11.296c0-.175-.174-.315-.348-.315h-1.772c-.174-1.575-1.495-2.8-3.094-2.8-1.599 0-2.92 1.225-3.094 2.8h-1.772c-.174 0-.348.14-.348.315l-.695 9.796c0 .19.137.385.348.385H20.56c.197 0 .348-.16.348-.385l-.695-9.796zM15 8.92c1.124 0 2.055.96 2.216 2.216h-4.432C12.944 9.881 13.876 8.92 15 8.92zm-4.705 2.955h1.467v1.75c0 .21.143.35.358.35.214 0 .357-.14.357-.35v-1.75h5.01v1.75c0 .21.143.35.358.35.214 0 .357-.14.357-.35v-1.75h1.468l.5 6.648H9.83l.465-6.648zm-.465 8.864l.138-1.478h10.064l.138 1.478H9.83z"/></g></svg>