<svg xmlns="http://www.w3.org/2000/svg" width="19" height="14" viewBox="0 0 19 14">
  <path fill="#C2A572" d="M0,0 L0,12.7163505 L7.28380462,12.7163505 C8.1430023,12.7091445 8.90686858,12.8790772 9.27906974,13.4117647 L9.27906974,0.874239888 C8.91879881,0.291842119 8.15689881,0 7.28380462,0 L0,0 Z M11.7161953,0 C10.8430791,0 10.0812011,0.291842119 9.72093021,0.874239888 L9.72093021,13.4117647 C10.0931314,12.8790772 10.8569093,12.7163505 11.7161953,12.7163505 L19,12.7163505 L19,2.40946745e-14 L11.7161953,0 Z M1.98837205,2.1193815 L7.51162788,2.1193815 C7.75566742,2.1193815 7.95348835,2.30915168 7.95348835,2.5432595 C7.95348835,2.77736731 7.75566742,2.96713749 7.51162788,2.96713749 L1.98837205,2.96713749 C1.74435461,2.96713749 1.54651159,2.77736731 1.54651159,2.5432595 C1.54651159,2.30915168 1.74435461,2.1193815 1.98837205,2.1193815 Z M11.4883721,2.1193815 L17.0116279,2.1193815 C17.2556453,2.1193815 17.4534884,2.30915168 17.4534884,2.5432595 C17.4534884,2.77736731 17.2556453,2.96713749 17.0116279,2.96713749 L11.4883721,2.96713749 C11.2443325,2.96713749 11.0465116,2.77736731 11.0465116,2.5432595 C11.0465116,2.30915168 11.2443325,2.1193815 11.4883721,2.1193815 Z M1.98837205,4.02683248 L7.51162788,4.02683248 C7.75566742,4.02683248 7.95348835,4.21660266 7.95348835,4.45071048 C7.95348835,4.68481829 7.75566742,4.87458847 7.51162788,4.87458847 L1.98837205,4.87458847 C1.74435461,4.87458847 1.54651159,4.68481829 1.54651159,4.45071048 C1.54651159,4.21660266 1.74435461,4.02683248 1.98837205,4.02683248 Z M11.4883721,4.02683248 L17.0116279,4.02683248 C17.2556453,4.02683248 17.4534884,4.21660266 17.4534884,4.45071048 C17.4534884,4.68481829 17.2556453,4.87458847 17.0116279,4.87458847 L11.4883721,4.87458847 C11.2443325,4.87458847 11.0465116,4.68481829 11.0465116,4.45071048 C11.0465116,4.21660266 11.2443325,4.02683248 11.4883721,4.02683248 Z M1.98837205,5.93428346 L7.51162788,5.93428346 C7.75566742,5.93428346 7.95348835,6.12405364 7.95348835,6.35815934 C7.95348835,6.59226715 7.75566742,6.78203733 7.51162788,6.78203733 L1.98837205,6.78203733 C1.74435461,6.78203733 1.54651159,6.59226715 1.54651159,6.35815934 C1.54651159,6.12405364 1.74435461,5.93428346 1.98837205,5.93428346 Z M11.4883721,5.93428346 L17.0116279,5.93428346 C17.2556453,5.93428346 17.4534884,6.12405364 17.4534884,6.35815934 C17.4534884,6.59226715 17.2556453,6.78203733 17.0116279,6.78203733 L11.4883721,6.78203733 C11.2443325,6.78203733 11.0465116,6.59226715 11.0465116,6.35815934 C11.0465116,6.12405364 11.2443325,5.93428346 11.4883721,5.93428346 Z M1.98837205,7.84173232 L7.51162788,7.84173232 C7.75566742,7.84173232 7.95348835,8.0315025 7.95348835,8.26561032 C7.95348835,8.49971814 7.75566742,8.68948831 7.51162788,8.68948831 L1.98837205,8.68948831 C1.74435461,8.68948831 1.54651159,8.49971814 1.54651159,8.26561032 C1.54651159,8.0315025 1.74435461,7.84173232 1.98837205,7.84173232 Z M11.4883721,7.84173232 L17.0116279,7.84173232 C17.2556453,7.84173232 17.4534884,8.0315025 17.4534884,8.26561032 C17.4534884,8.49971814 17.2556453,8.68948831 17.0116279,8.68948831 L11.4883721,8.68948831 C11.2443325,8.68948831 11.0465116,8.49971814 11.0465116,8.26561032 C11.0465116,8.0315025 11.2443325,7.84173232 11.4883721,7.84173232 Z M1.98837205,9.7491833 L7.51162788,9.7491833 C7.75566742,9.7491833 7.95348835,9.93895348 7.95348835,10.1730825 C7.95348835,10.4071903 7.75566742,10.5969605 7.51162788,10.5969605 L1.98837205,10.5969605 C1.74435461,10.5969605 1.54651159,10.4071903 1.54651159,10.1730825 C1.54651159,9.93895348 1.74435461,9.7491833 1.98837205,9.7491833 Z M11.4883721,9.7491833 L17.0116279,9.7491833 C17.2556453,9.7491833 17.4534884,9.93895348 17.4534884,10.1730825 C17.4534884,10.4071903 17.2556453,10.5969605 17.0116279,10.5969605 L11.4883721,10.5969605 C11.2443325,10.5969605 11.0465116,10.4071903 11.0465116,10.1730825 C11.0465116,9.93895348 11.2443325,9.7491833 11.4883721,9.7491833 Z"/>
</svg>
