<svg xmlns="http://www.w3.org/2000/svg" width="20" height="20" viewBox="0 0 20 20"><g fill="none" fill-rule="evenodd"><circle cx="10" cy="10" r="10" fill="#FFF"/><path fill="#263A32" fill-rule="nonzero" d="M10.027 0H10h-.027C4.477 0 0 4.504 0 10c0 5.523 4.477 10 10 10s10-4.477 10-10c0-5.496-4.477-10-9.973-10zM6.81 1.662c-.831.965-1.502 2.306-1.93 3.914a9.552 9.552 0 0 1-1.958-.992A8.77 8.77 0 0 1 6.81 1.662zM2.306 5.47c.67.456 1.447.831 2.305 1.153-.187.885-.295 1.85-.321 2.842H1.072a9.184 9.184 0 0 1 1.234-3.995zm-1.234 5.067H4.29c.026.965.134 1.904.294 2.762-.857.321-1.662.697-2.332 1.152a8.794 8.794 0 0 1-1.18-3.914zm1.797 4.826c.563-.402 1.233-.724 1.984-1.019.429 1.636 1.126 3.003 1.957 3.995a8.696 8.696 0 0 1-3.941-2.976zm6.595 3.512c-1.555-.349-2.896-2.252-3.593-4.853a16.8 16.8 0 0 1 3.593-.536v5.389zm0-6.461c-1.34.053-2.654.241-3.834.563a14.46 14.46 0 0 1-.268-2.44h4.102v1.877zm0-2.95H5.362c.027-.884.134-1.715.295-2.52 1.18.322 2.466.51 3.807.537v1.984zm0-3.055a15.052 15.052 0 0 1-3.566-.51c.697-2.547 2.038-4.423 3.566-4.772v5.282zm1.072-5.282c1.528.349 2.869 2.225 3.566 4.772-1.1.295-2.306.483-3.566.51V1.126zm0 6.354a17.142 17.142 0 0 0 3.807-.563c.161.804.268 1.662.295 2.52h-4.102V7.48zm0 3.056h4.102a14.158 14.158 0 0 1-.268 2.44c-1.18-.322-2.493-.51-3.834-.563v-1.877zm0 8.338v-5.389c1.26.054 2.493.215 3.593.536-.697 2.601-2.038 4.478-3.593 4.853zm2.654-.536c.858-.992 1.528-2.36 1.957-3.995.751.268 1.395.617 1.984 1.019a8.696 8.696 0 0 1-3.94 2.976zm4.531-3.86a9.465 9.465 0 0 0-2.332-1.154c.16-.884.268-1.796.295-2.761H18.9c-.054 1.394-.483 2.735-1.18 3.914zm1.207-5.014H15.71a16.48 16.48 0 0 0-.321-2.869c.858-.322 1.635-.697 2.305-1.153a9.411 9.411 0 0 1 1.234 4.022zm-3.78-3.914c-.43-1.582-1.1-2.923-1.93-3.915a8.77 8.77 0 0 1 3.887 2.923c-.563.402-1.234.724-1.958.992z"/></g></svg>